<svg version="1.1" id="Layer_1" xmlns="http://www.w3.org/2000/svg" xmlns:xlink="http://www.w3.org/1999/xlink" x="0px" y="0px"
	 width="100%" viewBox="0 0 1430 1797" enable-background="new 0 0 1430 1797" xml:space="preserve">
<path fill="#FFFFFF" opacity="1.000000" stroke="none" 
	d="
M1.000000,526.000000 
	C1.000000,350.666687 1.000000,175.833389 1.000000,1.000070 
	C477.666534,1.000047 954.333069,1.000047 1430.999756,1.000023 
	C1430.999756,599.999817 1430.999756,1198.999634 1430.999878,1797.999512 
	C954.333618,1797.999756 477.667297,1797.999756 1.000463,1797.999878 
	C1.000000,1374.166626 1.000000,950.333313 1.000000,526.000000 
M35.357426,1080.481079 
	C35.289200,1081.307861 35.161446,1082.134766 35.161263,1082.961548 
	C35.150665,1130.917847 35.148685,1178.874023 35.161873,1226.830322 
	C35.162174,1227.923950 35.345718,1229.017700 35.458290,1230.272949 
	C37.135963,1230.371826 38.442951,1230.515991 39.749969,1230.516235 
	C95.032883,1230.527954 150.315796,1230.530884 205.598679,1230.505615 
	C207.070282,1230.504883 208.541733,1230.184448 210.935150,1230.187378 
	C211.434875,1230.197021 211.934616,1230.214966 212.434341,1230.214966 
	C604.922180,1230.217773 997.409973,1230.219482 1389.897827,1230.213013 
	C1391.307251,1230.212891 1392.716675,1230.093872 1394.125977,1230.030396 
	C1392.740723,1228.556519 1391.171631,1227.803223 1389.583008,1227.093506 
	C1287.057739,1181.300049 1181.492554,1143.927368 1073.628540,1112.893921 
	C987.866699,1088.219604 901.208435,1067.243164 813.483215,1050.916016 
	C763.585693,1041.629150 713.518188,1033.139404 663.344116,1025.492065 
	C623.525513,1019.422913 583.488098,1014.632202 543.438293,1010.282288 
	C504.880157,1006.094299 466.221802,1002.630859 427.533600,999.893250 
	C386.696716,997.003540 345.780609,995.178467 304.882935,993.228027 
	C285.603973,992.308533 266.287109,992.183472 246.335358,991.191711 
	C234.072342,991.191711 221.809311,991.191711 208.972565,991.191711 
	C208.972565,911.423584 208.972565,832.657593 209.324448,753.603760 
	C209.624588,753.503906 209.860458,753.321106 210.856033,753.197205 
	C230.599762,754.728394 250.402084,755.727173 270.076019,757.892517 
	C325.003876,763.938049 379.968353,769.782532 434.752045,776.973755 
	C506.892548,786.443359 578.368530,799.968079 649.477722,815.340759 
	C770.897827,841.589905 890.385376,874.764954 1007.607910,915.964233 
	C1140.953247,962.829895 1269.940552,1019.410278 1393.033936,1089.105469 
	C1393.849609,1089.567261 1394.746582,1089.885376 1396.001221,1090.447998 
	C1396.001221,1088.163208 1396.001099,1086.351074 1396.001099,1084.538940 
	C1396.001099,1041.878418 1395.923950,999.217468 1396.118042,956.557861 
	C1396.137939,952.189453 1394.781128,949.731140 1391.227905,947.346436 
	C1295.731689,883.253723 1195.799438,826.956238 1092.156616,777.208984 
	C970.684387,718.903687 845.451111,670.085022 717.052856,629.340698 
	C611.672119,595.900452 504.824036,568.082947 396.490845,545.961731 
	C334.342102,533.271240 271.847534,522.653137 209.017044,513.032593 
	C209.035950,434.070709 209.054855,355.108795 209.078979,275.976837 
	C209.078979,275.976837 209.004044,275.824005 209.813583,275.956482 
	C210.634689,276.083954 211.465515,276.167206 212.275528,276.345123 
	C317.648224,299.494019 421.603424,327.862274 524.177246,361.277100 
	C683.557739,413.197510 838.289429,476.367554 987.495300,552.906433 
	C1130.032227,626.024292 1265.482666,710.339478 1392.113525,808.619385 
	C1393.201782,809.463928 1394.415894,810.146179 1396.001221,811.186279 
	C1396.001221,764.993835 1396.029297,719.512939 1395.886597,674.032593 
	C1395.881470,672.397949 1394.560181,670.338867 1393.232300,669.201599 
	C1375.394165,653.925110 1357.615112,638.572083 1339.496826,623.631714 
	C1230.081055,533.406799 1113.965210,452.716187 992.225403,380.056244 
	C866.916992,305.266357 736.880188,239.768387 602.928833,181.955246 
	C507.457581,140.750015 410.373291,103.740517 311.942352,70.270302 
	C278.108063,58.765388 243.985916,48.107010 209.570694,36.599430 
	C208.037338,37.149097 206.421844,37.537659 204.982483,38.271656 
	C149.433121,66.598923 93.915123,94.987793 38.323360,123.231499 
	C35.265873,124.784874 35.115189,126.829811 35.116772,129.616745 
	C35.160278,206.264175 35.147156,282.911621 35.185390,359.559052 
	C35.186176,361.132050 35.683201,362.704803 35.923553,365.129944 
	C35.627502,369.089417 35.076283,373.048737 35.073318,377.008423 
	C35.020962,446.963562 35.028206,516.918701 35.049911,586.873901 
	C35.051540,592.127991 35.259483,597.382080 35.186279,603.473389 
	C35.173534,682.882690 35.160789,762.291931 35.069538,842.674927 
	C35.369652,921.742065 35.669769,1000.809204 35.357426,1080.481079 
M151.500076,1281.768555 
	C112.879333,1281.768555 74.258598,1281.768555 35.511826,1281.768555 
	C35.511826,1442.586304 35.511826,1602.928101 35.511826,1763.375244 
	C489.126129,1763.375244 942.355530,1763.375244 1395.684937,1763.375244 
	C1395.684937,1602.734985 1395.684937,1442.350830 1395.684937,1281.768433 
	C981.078552,1281.768433 566.789307,1281.768433 151.500076,1281.768555 
M1233.308350,482.165161 
	C1244.362671,491.440155 1255.513550,500.602844 1266.446777,510.018372 
	C1280.279297,521.930786 1294.006348,533.968506 1307.647949,546.099304 
	C1323.899414,560.550964 1340.097168,575.065613 1356.151123,589.735840 
	C1364.867798,597.701233 1373.189819,606.096863 1381.783081,614.199524 
	C1386.192383,618.357056 1390.806641,622.297241 1395.982178,626.919739 
	C1395.982178,624.313477 1395.982300,622.543091 1395.982300,620.772644 
	C1395.982300,489.129761 1396.059082,357.486755 1395.851562,225.844193 
	C1395.832886,213.966751 1394.840088,201.943787 1392.820801,190.243591 
	C1386.281982,152.352554 1368.990967,119.683769 1342.407227,92.055168 
	C1325.394775,74.373978 1305.314575,60.801369 1282.829224,51.009052 
	C1262.128540,41.993874 1240.467529,36.092678 1217.807251,36.076954 
	C982.016724,35.913361 746.225891,35.968056 510.435181,35.973473 
	C509.260468,35.973499 508.085785,36.134830 506.911072,36.220833 
	C515.024780,40.725761 523.215027,44.351528 531.311340,48.175945 
	C557.319580,60.461296 583.499268,72.407265 609.229614,85.251701 
	C643.774353,102.496239 678.181580,120.044769 712.241638,138.223892 
	C747.581360,157.085999 782.708191,176.383774 817.426575,196.362610 
	C851.979492,216.246231 886.220215,236.715286 920.023193,257.846893 
	C952.548950,278.180115 984.419373,299.568787 1016.420105,320.731903 
	C1033.177979,331.814392 1049.880127,343.020355 1066.110107,354.852905 
	C1099.086426,378.894226 1131.938721,403.117645 1164.430054,427.808014 
	C1187.527588,445.359894 1209.951294,463.798615 1233.308350,482.165161 
z"/>
<path fill="#016E47" opacity="1.000000" stroke="none" 
	d="
M152.000076,1281.768555 
	C566.789307,1281.768433 981.078552,1281.768433 1395.684937,1281.768433 
	C1395.684937,1442.350830 1395.684937,1602.734985 1395.684937,1763.375244 
	C942.355530,1763.375244 489.126129,1763.375244 35.511826,1763.375244 
	C35.511826,1602.928101 35.511826,1442.586304 35.511826,1281.768555 
	C74.258598,1281.768555 112.879333,1281.768555 152.000076,1281.768555 
M1047.645996,1639.023315 
	C1054.402710,1639.804321 1061.155884,1641.223145 1067.916748,1641.260864 
	C1106.727173,1641.477783 1145.539551,1641.423584 1184.350830,1641.306396 
	C1190.147705,1641.288818 1196.000732,1640.828003 1201.728027,1639.933594 
	C1232.206543,1635.174683 1252.365723,1611.501709 1252.369263,1580.734375 
	C1252.373901,1542.255859 1252.359619,1503.777466 1252.377441,1465.298950 
	C1252.382446,1454.588013 1249.861206,1444.531128 1244.398071,1435.327759 
	C1232.325684,1414.990845 1213.097534,1406.616699 1190.737183,1406.220337 
	C1148.277222,1405.467529 1105.769531,1405.101440 1063.328003,1406.263306 
	C1023.262695,1407.360229 1001.304565,1434.228027 1001.764282,1469.619385 
	C1002.233704,1505.759766 1001.865295,1541.910889 1001.869202,1578.057373 
	C1001.872681,1609.844360 1016.459045,1629.578735 1047.645996,1639.023315 
M294.499878,1455.368652 
	C323.064941,1455.368652 351.630005,1455.368652 380.048828,1455.368652 
	C380.048828,1438.448364 380.048828,1422.375732 380.048828,1406.254395 
	C312.809723,1406.254395 245.894958,1406.254395 178.882294,1406.254395 
	C178.882294,1484.565308 178.882294,1562.622803 178.882294,1640.862549 
	C245.856445,1640.862549 312.579163,1640.862549 379.527405,1640.862549 
	C379.527405,1624.521484 379.527405,1608.447876 379.527405,1591.822754 
	C333.236450,1591.822754 287.185852,1591.822754 241.073059,1591.822754 
	C241.073059,1577.027710 241.073059,1562.786133 241.073059,1548.039673 
	C280.933441,1548.039673 320.496582,1548.039673 360.106842,1548.039673 
	C360.106842,1531.453735 360.106842,1515.377197 360.106842,1498.795898 
	C320.284271,1498.795898 280.720184,1498.795898 241.175964,1498.795898 
	C241.175964,1484.082642 241.175964,1469.879761 241.175964,1455.368652 
	C258.884796,1455.368652 276.192322,1455.368652 294.499878,1455.368652 
M754.096680,1420.583252 
	C741.162781,1432.708374 735.666565,1447.933594 735.643127,1465.347534 
	C735.592102,1503.335815 735.340454,1541.328003 735.848022,1579.309570 
	C735.960999,1587.761841 737.566833,1596.705444 740.732605,1604.511475 
	C750.875366,1629.521240 771.581482,1640.322388 797.170532,1640.771606 
	C844.807251,1641.608032 892.467896,1641.081665 940.118591,1641.102539 
	C940.724976,1641.102783 941.331543,1640.840698 941.748779,1640.744629 
	C941.748779,1622.573853 941.748779,1604.684570 941.748779,1586.632812 
	C939.538391,1586.632812 937.709290,1586.632812 935.880127,1586.632812 
	C899.724548,1586.632446 863.568970,1586.667114 827.413452,1586.617188 
	C808.885559,1586.591675 798.518860,1578.180664 798.252136,1561.820557 
	C797.820374,1535.335815 797.953674,1508.837036 798.218323,1482.347900 
	C798.341492,1470.024170 804.852600,1461.928467 815.844727,1459.384399 
	C819.052063,1458.641968 822.441162,1458.418579 825.747803,1458.412598 
	C862.569702,1458.346680 899.391785,1458.370239 936.213806,1458.369507 
	C938.009216,1458.369385 939.804626,1458.369385 941.857300,1458.369385 
	C941.857300,1440.101929 941.857300,1422.224243 941.857300,1404.292358 
	C941.128235,1404.169434 940.656189,1404.020264 940.184082,1404.020020 
	C893.365173,1404.007202 846.544495,1403.778442 799.728210,1404.124756 
	C783.085632,1404.247803 767.481445,1408.653442 754.096680,1420.583252 
M526.372131,1487.498413 
	C526.372131,1476.909912 526.372131,1466.321533 526.372131,1455.208008 
	C573.340393,1455.208008 619.539246,1455.208008 665.771851,1455.208008 
	C665.771851,1438.574219 665.771851,1422.484131 665.771851,1406.359863 
	C598.525696,1406.359863 531.509033,1406.359863 464.574280,1406.359863 
	C464.574280,1484.767456 464.574280,1562.814575 464.574280,1640.790771 
	C485.341553,1640.790771 505.757446,1640.790771 526.570068,1640.790771 
	C526.570068,1612.014038 526.570068,1583.577271 526.570068,1554.656006 
	C565.543213,1554.656006 604.118042,1554.656006 642.646301,1554.656006 
	C642.646301,1537.940674 642.646301,1521.717651 642.646301,1504.962646 
	C603.757874,1504.962646 565.221069,1504.962646 526.372192,1504.962646 
	C526.372192,1499.119629 526.372192,1493.808472 526.372131,1487.498413 
M1324.231079,1405.987549 
	C1321.640381,1405.987549 1319.049683,1405.987549 1316.545898,1405.987549 
	C1316.545898,1420.085449 1316.545898,1433.477295 1316.545898,1446.737915 
	C1319.459961,1446.737915 1322.009766,1446.737915 1325.002686,1446.737915 
	C1325.002686,1437.519165 1325.002686,1428.703247 1325.002686,1419.887329 
	C1328.797607,1427.450684 1331.786743,1435.133423 1334.845947,1442.788086 
	C1335.650635,1444.801392 1335.761963,1447.176514 1339.150024,1447.270752 
	C1342.806885,1447.372070 1343.042847,1444.804199 1343.904663,1442.621948 
	C1347.038086,1434.687500 1350.084595,1426.718628 1353.163940,1418.762817 
	C1353.500732,1418.827881 1353.837646,1418.892944 1354.174438,1418.958008 
	C1354.174438,1428.317139 1354.174438,1437.676147 1354.174438,1446.802979 
	C1357.100952,1446.802979 1359.516724,1446.802979 1361.845581,1446.802979 
	C1361.845581,1433.058960 1361.845581,1419.662598 1361.845581,1405.986572 
	C1359.741943,1405.986572 1357.891602,1406.233887 1356.132568,1405.937866 
	C1351.725098,1405.196045 1349.748901,1407.042847 1348.374756,1411.237915 
	C1345.860596,1418.914795 1342.626709,1426.356079 1339.402832,1434.640869 
	C1335.857666,1425.630737 1332.702759,1417.267700 1329.200317,1409.052979 
	C1328.622681,1407.698242 1326.521606,1406.993042 1324.231079,1405.987549 
M1287.575317,1429.498779 
	C1287.575317,1435.273926 1287.575317,1441.049072 1287.575317,1446.836670 
	C1290.576782,1446.836670 1292.989746,1446.836670 1295.876099,1446.836670 
	C1295.876099,1435.624023 1295.876099,1424.707520 1295.876099,1413.306763 
	C1300.264648,1413.306763 1304.179810,1413.306763 1308.048096,1413.306763 
	C1308.048096,1410.581421 1308.048096,1408.365234 1308.048096,1406.350952 
	C1296.775635,1406.350952 1285.879150,1406.350952 1275.121582,1406.350952 
	C1275.121582,1408.824219 1275.121582,1410.934937 1275.121582,1413.588379 
	C1279.287476,1413.588379 1283.201050,1413.588379 1287.575562,1413.588379 
	C1287.575562,1418.916382 1287.575562,1423.707886 1287.575317,1429.498779 
z"/>
<path fill="#035688" opacity="1.000000" stroke="none" 
	d="
M209.019638,513.964844 
	C271.847534,522.653137 334.342102,533.271240 396.490845,545.961731 
	C504.824036,568.082947 611.672119,595.900452 717.052856,629.340698 
	C845.451111,670.085022 970.684387,718.903687 1092.156616,777.208984 
	C1195.799438,826.956238 1295.731689,883.253723 1391.227905,947.346436 
	C1394.781128,949.731140 1396.137939,952.189453 1396.118042,956.557861 
	C1395.923950,999.217468 1396.001099,1041.878418 1396.001099,1084.538940 
	C1396.001099,1086.351074 1396.001221,1088.163208 1396.001221,1090.447998 
	C1394.746582,1089.885376 1393.849609,1089.567261 1393.033936,1089.105469 
	C1269.940552,1019.410278 1140.953247,962.829895 1007.607910,915.964233 
	C890.385376,874.764954 770.897827,841.589905 649.477722,815.340759 
	C578.368530,799.968079 506.892548,786.443359 434.752045,776.973755 
	C379.968353,769.782532 325.003876,763.938049 270.076019,757.892517 
	C250.402084,755.727173 230.599762,754.728394 210.428955,752.654297 
	C209.997406,675.194702 210.003281,598.277893 209.935730,521.361206 
	C209.933807,519.170654 209.150665,516.980774 208.795074,514.581116 
	C208.858337,514.371643 209.019638,513.964844 209.019638,513.964844 
z"/>
<path fill="#035688" opacity="1.000000" stroke="none" 
	d="
M209.995270,37.061901 
	C243.985916,48.107010 278.108063,58.765388 311.942352,70.270302 
	C410.373291,103.740517 507.457581,140.750015 602.928833,181.955246 
	C736.880188,239.768387 866.916992,305.266357 992.225403,380.056244 
	C1113.965210,452.716187 1230.081055,533.406799 1339.496826,623.631714 
	C1357.615112,638.572083 1375.394165,653.925110 1393.232300,669.201599 
	C1394.560181,670.338867 1395.881470,672.397949 1395.886597,674.032593 
	C1396.029297,719.512939 1396.001221,764.993835 1396.001221,811.186279 
	C1394.415894,810.146179 1393.201782,809.463928 1392.113525,808.619385 
	C1265.482666,710.339478 1130.032227,626.024292 987.495300,552.906433 
	C838.289429,476.367554 683.557739,413.197510 524.177246,361.277100 
	C421.603424,327.862274 317.648224,299.494019 212.275528,276.345123 
	C211.465515,276.167206 210.634689,276.083954 209.591827,275.527344 
	C209.576111,272.971802 209.961349,270.845520 209.962265,268.719025 
	C209.995468,191.499985 209.992905,114.280945 209.995270,37.061901 
z"/>
<path fill="#DBE0E4" opacity="1.000000" stroke="none" 
	d="
M1232.991943,482.003326 
	C1209.951294,463.798615 1187.527588,445.359894 1164.430054,427.808014 
	C1131.938721,403.117645 1099.086426,378.894226 1066.110107,354.852905 
	C1049.880127,343.020355 1033.177979,331.814392 1016.420105,320.731903 
	C984.419373,299.568787 952.548950,278.180115 920.023193,257.846893 
	C886.220215,236.715286 851.979492,216.246231 817.426575,196.362610 
	C782.708191,176.383774 747.581360,157.085999 712.241638,138.223892 
	C678.181580,120.044769 643.774353,102.496239 609.229614,85.251701 
	C583.499268,72.407265 557.319580,60.461296 531.311340,48.175945 
	C523.215027,44.351528 515.024780,40.725761 506.911072,36.220833 
	C508.085785,36.134830 509.260468,35.973499 510.435181,35.973473 
	C746.225891,35.968056 982.016724,35.913361 1217.807251,36.076954 
	C1240.467529,36.092678 1262.128540,41.993874 1282.829224,51.009052 
	C1305.314575,60.801369 1325.394775,74.373978 1342.407227,92.055168 
	C1368.990967,119.683769 1386.281982,152.352554 1392.820801,190.243591 
	C1394.840088,201.943787 1395.832886,213.966751 1395.851562,225.844193 
	C1396.059082,357.486755 1395.982300,489.129761 1395.982300,620.772644 
	C1395.982300,622.543091 1395.982178,624.313477 1395.982178,626.919739 
	C1390.806641,622.297241 1386.192383,618.357056 1381.783081,614.199524 
	C1373.189819,606.096863 1364.867798,597.701233 1356.151123,589.735840 
	C1340.097168,575.065613 1323.899414,560.550964 1307.647949,546.099304 
	C1294.006348,533.968506 1280.279297,521.930786 1266.446777,510.018372 
	C1255.513550,500.602844 1244.362671,491.440155 1232.991943,482.003326 
z"/>
<path fill="#035688" opacity="1.000000" stroke="none" 
	d="
M246.987442,991.698486 
	C266.287109,992.183472 285.603973,992.308533 304.882935,993.228027 
	C345.780609,995.178467 386.696716,997.003540 427.533600,999.893250 
	C466.221802,1002.630859 504.880157,1006.094299 543.438293,1010.282288 
	C583.488098,1014.632202 623.525513,1019.422913 663.344116,1025.492065 
	C713.518188,1033.139404 763.585693,1041.629150 813.483215,1050.916016 
	C901.208435,1067.243164 987.866699,1088.219604 1073.628540,1112.893921 
	C1181.492554,1143.927368 1287.057739,1181.300049 1389.583008,1227.093506 
	C1391.171631,1227.803223 1392.740723,1228.556519 1394.125977,1230.030396 
	C1392.716675,1230.093872 1391.307251,1230.212891 1389.897827,1230.213013 
	C997.409973,1230.219482 604.922180,1230.217773 212.434341,1230.214966 
	C211.934616,1230.214966 211.434875,1230.197021 210.464569,1229.630859 
	C210.003357,1150.011597 210.012726,1070.948730 210.479889,991.777588 
	C222.954269,991.678955 234.970856,991.688721 246.987442,991.698486 
z"/>
<path fill="#0A436B" opacity="1.000000" stroke="none" 
	d="
M209.782990,36.830666 
	C209.992905,114.280945 209.995468,191.499985 209.962265,268.719025 
	C209.961349,270.845520 209.576111,272.971802 209.187057,275.461121 
	C209.004044,275.824005 209.078979,275.976837 208.720245,276.046326 
	C173.613754,293.820770 138.850723,311.495880 104.123634,329.241302 
	C81.371735,340.867401 58.671871,352.595306 35.948708,364.277649 
	C35.683201,362.704803 35.186176,361.132050 35.185390,359.559052 
	C35.147156,282.911621 35.160278,206.264175 35.116772,129.616745 
	C35.115189,126.829811 35.265873,124.784874 38.323360,123.231499 
	C93.915123,94.987793 149.433121,66.598923 204.982483,38.271656 
	C206.421844,37.537659 208.037338,37.149097 209.782990,36.830666 
z"/>
<path fill="#0A436B" opacity="1.000000" stroke="none" 
	d="
M208.731796,514.790588 
	C209.150665,516.980774 209.933807,519.170654 209.935730,521.361206 
	C210.003281,598.277893 209.997406,675.194702 210.016983,752.583496 
	C209.860458,753.321106 209.624588,753.503906 208.780090,753.713928 
	C164.477020,776.132202 120.729813,798.462952 76.952812,820.735107 
	C63.058655,827.803955 49.085197,834.716919 35.148033,841.701172 
	C35.160789,762.291931 35.173534,682.882690 35.641666,602.999146 
	C69.379890,585.591248 102.657768,568.647888 135.947220,551.727356 
	C160.200821,539.399536 184.469711,527.101746 208.731796,514.790588 
z"/>
<path fill="#DBE0E4" opacity="1.000000" stroke="none" 
	d="
M35.108780,842.188049 
	C49.085197,834.716919 63.058655,827.803955 76.952812,820.735107 
	C120.729813,798.462952 164.477020,776.132202 208.604156,753.857849 
	C208.972565,832.657593 208.972565,911.423584 208.972565,991.191711 
	C221.809311,991.191711 234.072342,991.191711 246.661407,991.445068 
	C234.970856,991.688721 222.954269,991.678955 210.109009,991.762207 
	C166.355667,1013.773987 123.447105,1035.724487 80.497467,1057.594360 
	C65.707611,1065.125244 50.815365,1072.454834 35.969894,1079.876343 
	C35.669769,1000.809204 35.369652,921.742065 35.108780,842.188049 
z"/>
<path fill="#DBE0E4" opacity="1.000000" stroke="none" 
	d="
M208.795074,514.581116 
	C184.469711,527.101746 160.200821,539.399536 135.947220,551.727356 
	C102.657768,568.647888 69.379890,585.591248 35.734287,602.580505 
	C35.259483,597.382080 35.051540,592.127991 35.049911,586.873901 
	C35.028206,516.918701 35.020962,446.963562 35.073318,377.008423 
	C35.076283,373.048737 35.627502,369.089417 35.936127,364.703796 
	C58.671871,352.595306 81.371735,340.867401 104.123634,329.241302 
	C138.850723,311.495880 173.613754,293.820770 208.717651,276.131348 
	C209.054855,355.108795 209.035950,434.070709 209.018341,513.498718 
	C209.019638,513.964844 208.858337,514.371643 208.795074,514.581116 
z"/>
<path fill="#0A446C" opacity="1.000000" stroke="none" 
	d="
M35.663662,1080.178711 
	C50.815365,1072.454834 65.707611,1065.125244 80.497467,1057.594360 
	C123.447105,1035.724487 166.355667,1013.773987 209.651215,991.870483 
	C210.012726,1070.948730 210.003357,1150.011597 210.003616,1229.543701 
	C208.541733,1230.184448 207.070282,1230.504883 205.598679,1230.505615 
	C150.315796,1230.530884 95.032883,1230.527954 39.749969,1230.516235 
	C38.442951,1230.515991 37.135963,1230.371826 35.458290,1230.272949 
	C35.345718,1229.017700 35.162174,1227.923950 35.161873,1226.830322 
	C35.148685,1178.874023 35.150665,1130.917847 35.161263,1082.961548 
	C35.161446,1082.134766 35.289200,1081.307861 35.663662,1080.178711 
z"/>
<path fill="#FEFEFE" opacity="1.000000" stroke="none" 
	d="
M1047.235596,1638.959106 
	C1016.459045,1629.578735 1001.872681,1609.844360 1001.869202,1578.057373 
	C1001.865295,1541.910889 1002.233704,1505.759766 1001.764282,1469.619385 
	C1001.304565,1434.228027 1023.262695,1407.360229 1063.328003,1406.263306 
	C1105.769531,1405.101440 1148.277222,1405.467529 1190.737183,1406.220337 
	C1213.097534,1406.616699 1232.325684,1414.990845 1244.398071,1435.327759 
	C1249.861206,1444.531128 1252.382446,1454.588013 1252.377441,1465.298950 
	C1252.359619,1503.777466 1252.373901,1542.255859 1252.369263,1580.734375 
	C1252.365723,1611.501709 1232.206543,1635.174683 1201.728027,1639.933594 
	C1196.000732,1640.828003 1190.147705,1641.288818 1184.350830,1641.306396 
	C1145.539551,1641.423584 1106.727173,1641.477783 1067.916748,1641.260864 
	C1061.155884,1641.223145 1054.402710,1639.804321 1047.235596,1638.959106 
M1177.941284,1456.269897 
	C1174.721313,1455.502808 1171.505737,1454.091919 1168.280640,1454.069946 
	C1140.957764,1453.884033 1113.627808,1453.623535 1086.311523,1454.080322 
	C1072.604126,1454.309570 1064.309570,1463.133789 1064.207764,1476.764160 
	C1063.975952,1507.758301 1063.958008,1538.756714 1064.218628,1569.750366 
	C1064.337646,1583.891724 1073.308594,1592.543701 1087.517944,1593.166748 
	C1092.008789,1593.363647 1096.514771,1593.223022 1101.013916,1593.223633 
	C1122.510986,1593.226074 1144.008911,1593.329712 1165.505005,1593.186890 
	C1180.439575,1593.087646 1189.955933,1584.704346 1190.095581,1570.721558 
	C1190.411987,1539.062500 1190.324219,1507.397461 1190.131958,1475.736572 
	C1190.081055,1467.372314 1186.332153,1460.671021 1177.941284,1456.269897 
z"/>
<path fill="#FFFFFF" opacity="1.000000" stroke="none" 
	d="
M293.999878,1455.368652 
	C276.192322,1455.368652 258.884796,1455.368652 241.175964,1455.368652 
	C241.175964,1469.879761 241.175964,1484.082642 241.175964,1498.795898 
	C280.720184,1498.795898 320.284271,1498.795898 360.106842,1498.795898 
	C360.106842,1515.377197 360.106842,1531.453735 360.106842,1548.039673 
	C320.496582,1548.039673 280.933441,1548.039673 241.073059,1548.039673 
	C241.073059,1562.786133 241.073059,1577.027710 241.073059,1591.822754 
	C287.185852,1591.822754 333.236450,1591.822754 379.527405,1591.822754 
	C379.527405,1608.447876 379.527405,1624.521484 379.527405,1640.862549 
	C312.579163,1640.862549 245.856445,1640.862549 178.882294,1640.862549 
	C178.882294,1562.622803 178.882294,1484.565308 178.882294,1406.254395 
	C245.894958,1406.254395 312.809723,1406.254395 380.048828,1406.254395 
	C380.048828,1422.375732 380.048828,1438.448364 380.048828,1455.368652 
	C351.630005,1455.368652 323.064941,1455.368652 293.999878,1455.368652 
z"/>
<path fill="#FFFFFF" opacity="1.000000" stroke="none" 
	d="
M754.351501,1420.335938 
	C767.481445,1408.653442 783.085632,1404.247803 799.728210,1404.124756 
	C846.544495,1403.778442 893.365173,1404.007202 940.184082,1404.020020 
	C940.656189,1404.020264 941.128235,1404.169434 941.857300,1404.292358 
	C941.857300,1422.224243 941.857300,1440.101929 941.857300,1458.369385 
	C939.804626,1458.369385 938.009216,1458.369385 936.213806,1458.369507 
	C899.391785,1458.370239 862.569702,1458.346680 825.747803,1458.412598 
	C822.441162,1458.418579 819.052063,1458.641968 815.844727,1459.384399 
	C804.852600,1461.928467 798.341492,1470.024170 798.218323,1482.347900 
	C797.953674,1508.837036 797.820374,1535.335815 798.252136,1561.820557 
	C798.518860,1578.180664 808.885559,1586.591675 827.413452,1586.617188 
	C863.568970,1586.667114 899.724548,1586.632446 935.880127,1586.632812 
	C937.709290,1586.632812 939.538391,1586.632812 941.748779,1586.632812 
	C941.748779,1604.684570 941.748779,1622.573853 941.748779,1640.744629 
	C941.331543,1640.840698 940.724976,1641.102783 940.118591,1641.102539 
	C892.467896,1641.081665 844.807251,1641.608032 797.170532,1640.771606 
	C771.581482,1640.322388 750.875366,1629.521240 740.732605,1604.511475 
	C737.566833,1596.705444 735.960999,1587.761841 735.848022,1579.309570 
	C735.340454,1541.328003 735.592102,1503.335815 735.643127,1465.347534 
	C735.666565,1447.933594 741.162781,1432.708374 754.351501,1420.335938 
z"/>
<path fill="#FEFEFE" opacity="1.000000" stroke="none" 
	d="
M526.372192,1487.997925 
	C526.372192,1493.808472 526.372192,1499.119629 526.372192,1504.962646 
	C565.221069,1504.962646 603.757874,1504.962646 642.646301,1504.962646 
	C642.646301,1521.717651 642.646301,1537.940674 642.646301,1554.656006 
	C604.118042,1554.656006 565.543213,1554.656006 526.570068,1554.656006 
	C526.570068,1583.577271 526.570068,1612.014038 526.570068,1640.790771 
	C505.757446,1640.790771 485.341553,1640.790771 464.574280,1640.790771 
	C464.574280,1562.814575 464.574280,1484.767456 464.574280,1406.359863 
	C531.509033,1406.359863 598.525696,1406.359863 665.771851,1406.359863 
	C665.771851,1422.484131 665.771851,1438.574219 665.771851,1455.208008 
	C619.539246,1455.208008 573.340393,1455.208008 526.372131,1455.208008 
	C526.372131,1466.321533 526.372131,1476.909912 526.372192,1487.997925 
z"/>
<path fill="#F8FAF9" opacity="1.000000" stroke="none" 
	d="
M1324.677734,1405.987549 
	C1326.521606,1406.993042 1328.622681,1407.698242 1329.200317,1409.052979 
	C1332.702759,1417.267700 1335.857666,1425.630737 1339.402832,1434.640869 
	C1342.626709,1426.356079 1345.860596,1418.914795 1348.374756,1411.237915 
	C1349.748901,1407.042847 1351.725098,1405.196045 1356.132568,1405.937866 
	C1357.891602,1406.233887 1359.741943,1405.986572 1361.845581,1405.986572 
	C1361.845581,1419.662598 1361.845581,1433.058960 1361.845581,1446.802979 
	C1359.516724,1446.802979 1357.100952,1446.802979 1354.174438,1446.802979 
	C1354.174438,1437.676147 1354.174438,1428.317139 1354.174438,1418.958008 
	C1353.837646,1418.892944 1353.500732,1418.827881 1353.163940,1418.762817 
	C1350.084595,1426.718628 1347.038086,1434.687500 1343.904663,1442.621948 
	C1343.042847,1444.804199 1342.806885,1447.372070 1339.150024,1447.270752 
	C1335.761963,1447.176514 1335.650635,1444.801392 1334.845947,1442.788086 
	C1331.786743,1435.133423 1328.797607,1427.450684 1325.002686,1419.887329 
	C1325.002686,1428.703247 1325.002686,1437.519165 1325.002686,1446.737915 
	C1322.009766,1446.737915 1319.459961,1446.737915 1316.545898,1446.737915 
	C1316.545898,1433.477295 1316.545898,1420.085449 1316.545898,1405.987549 
	C1319.049683,1405.987549 1321.640381,1405.987549 1324.677734,1405.987549 
z"/>
<path fill="#FAFBFA" opacity="1.000000" stroke="none" 
	d="
M1287.575439,1428.999146 
	C1287.575562,1423.707886 1287.575562,1418.916382 1287.575562,1413.588379 
	C1283.201050,1413.588379 1279.287476,1413.588379 1275.121582,1413.588379 
	C1275.121582,1410.934937 1275.121582,1408.824219 1275.121582,1406.350952 
	C1285.879150,1406.350952 1296.775635,1406.350952 1308.048096,1406.350952 
	C1308.048096,1408.365234 1308.048096,1410.581421 1308.048096,1413.306763 
	C1304.179810,1413.306763 1300.264648,1413.306763 1295.876099,1413.306763 
	C1295.876099,1424.707520 1295.876099,1435.624023 1295.876099,1446.836670 
	C1292.989746,1446.836670 1290.576782,1446.836670 1287.575317,1446.836670 
	C1287.575317,1441.049072 1287.575317,1435.273926 1287.575439,1428.999146 
z"/>
<path fill="#016E47" opacity="1.000000" stroke="none" 
	d="
M1178.269287,1456.468994 
	C1186.332153,1460.671021 1190.081055,1467.372314 1190.131958,1475.736572 
	C1190.324219,1507.397461 1190.411987,1539.062500 1190.095581,1570.721558 
	C1189.955933,1584.704346 1180.439575,1593.087646 1165.505005,1593.186890 
	C1144.008911,1593.329712 1122.510986,1593.226074 1101.013916,1593.223633 
	C1096.514771,1593.223022 1092.008789,1593.363647 1087.517944,1593.166748 
	C1073.308594,1592.543701 1064.337646,1583.891724 1064.218628,1569.750366 
	C1063.958008,1538.756714 1063.975952,1507.758301 1064.207764,1476.764160 
	C1064.309570,1463.133789 1072.604126,1454.309570 1086.311523,1454.080322 
	C1113.627808,1453.623535 1140.957764,1453.884033 1168.280640,1454.069946 
	C1171.505737,1454.091919 1174.721313,1455.502808 1178.269287,1456.468994 
z"/>
</svg>