<?xml version="1.0" standalone="no"?>
<!DOCTYPE svg PUBLIC "-//W3C//DTD SVG 20010904//EN"
 "http://www.w3.org/TR/2001/REC-SVG-20010904/DTD/svg10.dtd">
<svg version="1.0" xmlns="http://www.w3.org/2000/svg"
 width="300.000000pt" height="221.000000pt" viewBox="0 0 300.000000 221.000000"
 preserveAspectRatio="xMidYMid meet">
<metadata>
Created by potrace 1.10, written by Peter Selinger 2001-2011
</metadata>
<g transform="translate(0.000000,221.000000) scale(0.100000,-0.100000)"
fill="#000000" stroke="none">
<path d="M55 1515 c-2 -5 -8 -25 -14 -44 -6 -19 -11 -36 -11 -38 0 -2 13 3 30
12 16 8 52 15 80 15 l50 0 0 -233 c0 -194 -3 -236 -16 -255 l-15 -22 71 0 70
0 -14 23 c-12 17 -16 71 -18 255 l-3 232 54 0 c35 0 61 -6 72 -16 16 -14 18
-13 24 18 3 18 8 40 11 48 3 13 -22 15 -182 15 -116 0 -188 -4 -189 -10z m189
-33 c8 -13 -11 -35 -23 -28 -16 10 -14 36 3 36 8 0 17 -4 20 -8z"/>
<path d="M2886 1474 c-24 -24 -20 -61 9 -80 23 -15 27 -15 50 0 42 28 24 96
-25 96 -10 0 -26 -7 -34 -16z m62 -6 c15 -15 16 -58 2 -58 -5 0 -10 14 -10 30
0 23 -4 30 -20 30 -16 0 -20 -7 -20 -32 0 -25 3 -29 10 -18 9 13 11 13 20 0
13 -21 -4 -34 -29 -21 -36 20 -22 81 19 81 9 0 21 -5 28 -12z"/>
<path d="M1463 1473 l-122 -4 9 -25 c6 -14 10 -118 10 -232 0 -160 -3 -213
-14 -234 l-15 -28 144 0 143 0 16 47 c9 26 16 48 16 50 0 2 -17 -6 -37 -17
-38 -20 -94 -25 -152 -14 l-31 6 0 95 0 95 43 -4 c23 -3 49 -8 58 -12 13 -6
16 0 16 31 l0 38 -59 -3 -59 -4 3 79 3 78 47 3 c29 2 59 -3 77 -13 l31 -16 0
46 c0 25 -1 44 -2 43 -2 -1 -58 -4 -125 -5z"/>
<path d="M1748 1470 c-48 -4 -56 -7 -48 -20 5 -8 10 -114 10 -239 0 -195 -2
-227 -17 -243 -16 -17 -11 -18 129 -18 l145 0 19 47 c11 27 21 51 22 56 2 4
-13 -4 -33 -18 -33 -22 -49 -25 -117 -25 l-79 0 3 220 c2 181 6 222 18 230 22
13 11 16 -52 10z"/>
<path d="M2043 1462 c15 -16 17 -48 17 -245 0 -192 -2 -228 -16 -241 -14 -15
-9 -16 51 -16 60 0 65 1 51 16 -14 13 -16 49 -16 241 0 197 2 229 17 245 15
17 13 18 -52 18 -65 0 -67 -1 -52 -18z"/>
<path d="M2207 1453 c-3 -16 -9 -37 -13 -47 -7 -19 -7 -19 16 -3 16 11 44 17
77 17 l53 0 0 -208 c0 -172 -3 -211 -16 -230 l-15 -22 67 0 c64 0 66 1 51 18
-14 15 -17 51 -19 230 l-3 212 57 0 c44 0 59 -4 67 -17 9 -16 10 -16 11 -2 0
9 3 31 6 48 l7 31 -170 0 -170 0 -6 -27z"/>
<path d="M2584 1458 c13 -19 16 -59 16 -238 0 -179 -3 -219 -16 -238 l-15 -22
144 0 145 0 16 47 c9 26 16 48 16 49 0 2 -15 -5 -32 -16 -36 -21 -57 -24 -135
-22 l-53 2 0 99 0 99 43 -5 c23 -3 50 -10 60 -15 15 -8 17 -3 17 33 l0 41 -60
-4 -60 -3 0 78 0 77 64 0 c36 0 68 -4 71 -10 13 -21 20 -8 17 30 l-4 40 -125
0 -124 0 15 -22z"/>
<path d="M474 1448 c13 -18 16 -56 16 -206 0 -172 1 -187 22 -224 13 -22 34
-46 48 -53 64 -33 150 -27 204 16 l26 20 0 -25 c0 -25 3 -26 52 -26 49 0 50 1
35 18 -15 16 -17 48 -17 241 0 134 4 230 10 242 10 18 7 19 -50 19 l-61 0 15
-22 c13 -18 16 -55 16 -199 0 -176 0 -178 -26 -208 -53 -63 -154 -59 -188 8
-20 39 -24 389 -4 409 9 9 -2 12 -51 12 l-62 0 15 -22z"/>
<path d="M948 1458 c9 -9 12 -76 12 -242 0 -204 -2 -232 -17 -249 -18 -19 -17
-19 97 -15 132 5 184 24 219 81 41 67 19 162 -46 203 -15 10 -30 19 -32 20 -2
2 9 13 23 26 32 27 44 90 24 128 -24 45 -71 60 -187 60 -82 0 -102 -3 -93 -12z
m180 -44 c35 -24 44 -59 28 -98 -14 -34 -54 -56 -102 -56 -23 0 -24 3 -24 78
0 43 3 82 7 85 12 13 68 7 91 -9z m16 -209 c35 -17 66 -61 66 -94 0 -63 -49
-101 -130 -101 l-50 0 0 105 0 105 41 0 c23 0 55 -7 73 -15z"/>
<path d="M1615 838 c-6 -18 -25 -129 -25 -145 0 -24 68 -16 95 12 34 33 35
107 3 129 -27 19 -67 21 -73 4z m63 -30 c28 -28 -1 -98 -39 -98 -17 0 -19 5
-14 38 13 75 25 88 53 60z"/>
<path d="M1746 828 c-3 -13 -8 -41 -11 -63 -4 -22 -9 -50 -12 -63 -5 -22 -3
-23 47 -20 66 4 83 28 20 28 -34 0 -41 3 -36 16 3 9 6 18 6 20 0 2 16 4 35 4
24 0 35 5 35 15 0 10 -10 15 -30 15 -23 0 -30 4 -30 20 0 17 7 20 41 20 58 0
46 24 -14 28 -41 3 -47 1 -51 -20z"/>
<path d="M1875 838 c-6 -18 -25 -129 -25 -146 0 -25 25 -6 30 24 4 24 10 30
38 32 37 4 57 32 48 67 -8 31 -82 50 -91 23z m63 -40 c-4 -30 -48 -39 -48 -10
0 24 8 32 32 32 14 0 19 -6 16 -22z"/>
<path d="M2000 845 c0 -2 -7 -39 -15 -82 -8 -43 -15 -79 -15 -81 0 -2 23 -2
52 0 64 4 80 28 18 28 -34 0 -41 3 -38 18 2 12 14 18 41 20 50 4 52 32 2 32
-19 0 -35 3 -35 8 1 19 18 31 50 34 50 4 39 23 -15 25 -25 1 -45 0 -45 -2z"/>
<path d="M2125 838 c-8 -26 -25 -120 -25 -138 0 -35 19 -21 25 18 11 66 17 69
34 18 10 -28 23 -52 29 -54 7 -2 12 -1 12 1 0 3 7 40 15 83 8 43 13 79 11 82
-11 11 -24 -12 -30 -53 -9 -54 -19 -51 -36 10 -12 44 -27 57 -35 33z"/>
<path d="M2256 823 c-3 -16 -8 -46 -12 -68 -3 -22 -8 -48 -11 -57 -3 -15 2
-18 31 -18 45 0 83 34 92 82 5 31 2 41 -20 62 -35 36 -73 35 -80 -1z m62 -15
c15 -15 16 -53 2 -79 -14 -25 -63 -27 -57 -1 3 9 8 34 12 55 6 38 21 47 43 25z"/>
<path d="M2400 778 c-45 -100 -44 -98 -27 -98 8 0 17 9 20 20 3 13 14 20 30
20 16 0 26 -7 30 -20 6 -24 27 -27 27 -4 0 47 -24 154 -35 154 -7 0 -27 -33
-45 -72z m50 -14 c0 -13 -6 -24 -13 -24 -22 0 -26 11 -15 36 13 28 28 22 28
-12z"/>
<path d="M2526 829 c-3 -13 -8 -42 -11 -64 -4 -22 -9 -50 -12 -62 -5 -21 -2
-23 34 -23 21 0 49 7 61 16 23 16 29 48 12 59 -6 4 -4 15 5 29 20 30 2 54 -47
62 -33 6 -38 4 -42 -17z m69 -29 c0 -9 -11 -16 -27 -18 -23 -3 -26 0 -21 18 7
24 48 25 48 0z m-5 -70 c0 -16 -7 -20 -30 -20 -18 0 -30 5 -30 13 0 20 10 27
37 27 16 0 23 -6 23 -20z"/>
<path d="M2651 781 c-17 -104 -18 -101 34 -101 33 0 45 4 45 15 0 10 -10 15
-31 15 l-32 0 6 45 c4 25 9 56 13 70 4 18 2 25 -8 25 -11 0 -18 -20 -27 -69z"/>
<path d="M2776 828 c-14 -66 -26 -130 -26 -139 0 -15 103 -7 108 9 2 8 -9 12
-37 12 -34 0 -41 3 -41 20 0 17 7 20 40 20 29 0 40 4 40 15 0 11 -11 15 -36
15 -29 0 -35 3 -30 16 3 9 6 18 6 20 0 2 16 4 35 4 24 0 35 5 35 15 0 11 -12
15 -45 15 -38 0 -45 -3 -49 -22z"/>
</g>
</svg>
